<svg width="161" height="26" viewBox="0 0 161 26" fill="none" xmlns="http://www.w3.org/2000/svg">
<g clip-path="url(#clip0_1615_117)">
<path d="M40.8917 15.9334C40.8917 15.4134 40.9345 15.3019 41.2773 15.0048L45.5192 11.5876C45.6478 11.4762 45.6906 11.3648 45.6906 11.2162V10.9191C45.6906 10.6219 45.3907 10.3991 45.0907 10.3991H41.4915C41.1487 10.3991 40.8917 10.1762 40.8917 9.87907V0.52C40.8917 0.222857 41.1487 0 41.4915 0H47.1474C47.4474 0 47.7473 0.222857 47.7473 0.52V8.83907C47.7473 9.13621 48.0044 9.35907 48.3472 9.35907H48.6899C48.8613 9.35907 48.9899 9.32193 49.1184 9.2105L53.702 5.53336C54.0448 5.23621 54.1734 5.19907 54.7304 5.19907H59.4865C63.0857 5.19907 64.8853 6.75907 64.8853 9.87907V15.3753C64.8853 15.8953 64.8424 16.0439 64.4996 16.3039L52.8462 25.6629C52.5034 25.9601 52.3748 25.9972 51.775 25.9972H46.2905C42.6913 25.9972 40.8927 24.4372 40.8927 21.3172V15.9324L40.8917 15.9334ZM57.4287 10.3991H48.3461C48.0033 10.3991 47.7462 10.6219 47.7462 10.9191V20.2781C47.7462 20.5753 48.0033 20.7981 48.3461 20.7981H57.4287C57.7286 20.7981 58.0286 20.5753 58.0286 20.2781V10.9191C58.0286 10.6219 57.7286 10.3991 57.4287 10.3991Z" fill="white"/>
<path d="M65.9532 21.3181V15.8219C65.9532 15.3019 65.9961 15.1905 66.3389 14.8933L77.9924 5.53424C78.3351 5.23709 78.4637 5.19995 79.0636 5.19995H84.9765C88.5757 5.19995 90.3743 6.75995 90.3743 9.87995V15.3762C90.3743 15.8962 90.3314 16.0076 89.9886 16.3047L78.3351 25.6638C77.9924 25.961 77.8638 25.9981 77.2639 25.9981H71.351C67.7518 25.9981 65.9532 24.4381 65.9532 21.3181ZM73.4077 20.7981H82.9188C83.2615 20.7981 83.5186 20.5752 83.5186 20.2781V10.919C83.5186 10.6219 83.2615 10.399 82.9188 10.399H73.4077C73.1077 10.399 72.8078 10.6219 72.8078 10.919V20.2781C72.8078 20.5752 73.1077 20.7981 73.4077 20.7981Z" fill="white"/>
<path d="M91.4443 21.3181V15.8219C91.4443 15.3019 91.4872 15.1905 91.83 14.8933L103.483 5.53424C103.826 5.23709 103.955 5.19995 104.555 5.19995H110.467C114.066 5.19995 115.865 6.75995 115.865 9.87995V15.3762C115.865 15.8962 115.823 16.0076 115.48 16.3047L103.826 25.6638C103.483 25.961 103.355 25.9981 102.755 25.9981H96.8431C93.2439 25.9981 91.4443 24.4381 91.4443 21.3181ZM98.8998 20.7981H108.411C108.754 20.7981 109.011 20.5752 109.011 20.2781V10.919C109.011 10.6219 108.754 10.399 108.411 10.399H98.8998C98.5999 10.399 98.3 10.6219 98.3 10.919V20.2781C98.3 20.5752 98.5999 20.7981 98.8998 20.7981Z" fill="white"/>
<path d="M113.293 25.1438L118.092 21.3181C118.478 21.0209 118.864 20.7981 119.635 20.7981H130.946C131.246 20.7981 131.545 20.5752 131.545 20.2781V14.6695C131.545 14.2981 131.803 14.1123 132.445 14.1123H137.714C138.1 14.1123 138.314 14.2981 138.314 14.6323V15.9323C138.314 16.1923 138.229 16.3781 138.014 16.5638L126.447 25.8486C126.318 25.96 126.19 25.9971 126.018 25.9971H113.679C112.951 25.9971 112.736 25.5885 113.293 25.1428V25.1438ZM117.278 15.339C117.278 15.079 117.364 14.8933 117.578 14.7076L129.189 5.34848C129.317 5.23705 129.446 5.19991 129.617 5.19991H141.271V0.891338C141.271 0.594195 141.528 0.371338 141.871 0.371338H146.67C147.827 0.371338 148.126 0.594195 148.126 0.891338V8.83898C148.126 9.17327 148.298 9.35898 148.641 9.35898C148.855 9.35898 149.026 9.32184 149.24 9.13612L153.911 5.34755C154.039 5.23612 154.168 5.19898 154.297 5.19898H160.294C160.98 5.19898 161.151 5.71898 160.723 6.09041L155.752 10.2504C155.624 10.3618 155.495 10.399 155.324 10.399H148.726C148.384 10.399 148.126 10.6218 148.126 10.919V20.2781C148.126 20.5752 148.384 20.7981 148.726 20.7981H160.294C160.98 20.7981 161.151 21.3181 160.723 21.6895L155.752 25.8495C155.624 25.9609 155.495 25.9981 155.324 25.9981H146.67C143.07 25.9981 141.271 24.4381 141.271 21.3181V15.4133C141.271 15.2647 141.314 15.1533 141.442 15.0418L145.898 11.3647C146.07 11.2161 146.155 11.1418 146.155 10.8818C146.155 10.5847 145.941 10.399 145.556 10.399H141.828C141.485 10.399 141.228 10.1761 141.228 9.87898V6.75898C141.228 6.49898 140.971 6.23898 140.628 6.23898H140.285C140.114 6.23898 139.985 6.27612 139.857 6.38755L135.701 10.2504C135.572 10.3618 135.444 10.399 135.272 10.399H124.69C124.39 10.399 124.09 10.6218 124.09 10.919V16.5276C124.09 16.899 123.833 17.0847 123.19 17.0847H117.877C117.491 17.0847 117.277 16.899 117.277 16.5647V15.339H117.278Z" fill="white"/>
<path d="M21.9734 13.7634C21.6938 13.599 21.3606 13.5164 20.9729 13.5164C20.5851 13.5164 20.2391 13.599 19.9563 13.7634C19.6735 13.9277 19.4571 14.1654 19.3082 14.4756C19.1593 14.7857 19.0844 15.1636 19.0844 15.6094C19.0844 16.0551 19.1572 16.4293 19.3018 16.7329C19.4475 17.0366 19.6628 17.2687 19.9499 17.4303C20.237 17.5919 20.5776 17.6754 20.9729 17.6819C21.3681 17.6754 21.7023 17.5937 21.9787 17.4349C22.254 17.2771 22.4629 17.0412 22.6043 16.7274C22.7457 16.4144 22.8207 16.0384 22.8282 15.5991C22.8207 15.1534 22.7457 14.7774 22.6043 14.4709C22.4629 14.1645 22.2519 13.9286 21.9734 13.7634Z" fill="#653DF5"/>
<path d="M27.8092 5.19897H13.1103C12.5104 5.19897 12.3819 5.23612 12.0391 5.53326L0.385629 14.8923C0.0428476 15.1895 0 15.3009 0 15.8209V21.318C0 24.4371 1.7996 25.9971 5.3988 25.9971H20.0977C20.6965 25.9971 20.825 25.96 21.1678 25.6628L32.8224 16.3038C33.1641 16.0066 33.2069 15.8952 33.2069 15.3752V9.87897C33.2069 6.75897 31.4084 5.19897 27.8092 5.19897ZM14.911 18.3633C14.2586 18.8248 13.3749 19.056 12.2566 19.056C11.3996 19.056 10.6701 18.9205 10.066 18.6493C9.4629 18.3782 9.00015 17.9845 8.67986 17.4673C8.35957 16.951 8.20318 16.3335 8.21068 15.6175C8.20318 14.8877 8.35743 14.2618 8.6745 13.7381C8.99158 13.2153 9.45647 12.8179 10.0713 12.5468C10.6862 12.2756 11.4135 12.14 12.2555 12.14C12.9775 12.14 13.6127 12.2431 14.1611 12.4502C14.7085 12.6573 15.1424 12.9572 15.4626 13.3509C15.7829 13.7446 15.9693 14.2163 16.0218 14.7651H13.798C13.7091 14.3909 13.5281 14.103 13.256 13.9034C12.9839 13.7028 12.6315 13.5998 12.1998 13.5933C11.8345 13.5998 11.5164 13.6787 11.2443 13.831C10.9722 13.9823 10.7633 14.2089 10.6187 14.5088C10.473 14.8088 10.4013 15.1755 10.4013 15.6083C10.4013 16.041 10.472 16.4143 10.6134 16.7077C10.7548 17.002 10.9636 17.224 11.2389 17.3763C11.5142 17.5276 11.8345 17.6038 12.1998 17.6038C12.639 17.6038 12.9946 17.5007 13.2667 17.2936C13.5388 17.0865 13.723 16.7996 13.8194 16.4319H16.0432C15.9393 17.2583 15.5612 17.9028 14.9088 18.3643L14.911 18.3633ZM24.5153 17.4719C24.2025 17.9919 23.7462 18.3856 23.1463 18.654C22.5464 18.9223 21.8223 19.056 20.9728 19.056C20.1234 19.056 19.3864 18.9205 18.7823 18.6493C18.1792 18.3782 17.7164 17.9845 17.3961 17.4673C17.0759 16.951 16.9195 16.3307 16.927 15.6073C16.9195 14.884 17.0737 14.2609 17.3908 13.7381C17.7079 13.2153 18.1695 12.8179 18.7769 12.5468C19.3843 12.2756 20.1159 12.14 20.9728 12.14C21.8298 12.14 22.5357 12.2756 23.1356 12.5468C23.7354 12.8179 24.1928 13.2135 24.5099 13.7335C24.827 14.2535 24.9887 14.8784 24.9962 15.6083C24.9887 16.3316 24.8291 16.9528 24.5153 17.4728V17.4719Z" fill="#653DF5"/>
</g>
<defs>
<clipPath id="clip0_1615_117">
<rect width="161" height="26" fill="white"/>
</clipPath>
</defs>
</svg>
